<?xml version="1.0" encoding="UTF-8" standalone="no"?><!DOCTYPE svg PUBLIC "-//W3C//DTD SVG 1.1//EN" "http://www.w3.org/Graphics/SVG/1.1/DTD/svg11.dtd"><svg width="100%" height="100%" viewBox="0 0 127 20" version="1.1" xmlns="http://www.w3.org/2000/svg" xmlns:xlink="http://www.w3.org/1999/xlink" xml:space="preserve" xmlns:serif="http://www.serif.com/" style="fill-rule:evenodd;clip-rule:evenodd;stroke-linejoin:round;stroke-miterlimit:2;"><g id="logotipo-with-r-33-copy"><g><path id="Shape" d="M94.524,4.103c0.491,0 0.793,0.302 0.793,0.642c0,0.302 -0.151,0.49 -0.415,0.604c0.226,0.037 0.34,0.226 0.377,0.453c0,0.491 0.038,0.642 0.076,0.717l-0.415,0c-0.038,-0.151 -0.038,-0.415 -0.038,-0.642c0,-0.264 -0.114,-0.377 -0.378,-0.377l-0.604,0l0,1.019l-0.377,0l0,-2.416l0.981,0Zm-0.113,1.095c0.34,0 0.491,-0.151 0.491,-0.416c0,-0.264 -0.189,-0.377 -0.453,-0.377l-0.604,0l0,0.793l0.566,0Z" style="fill:#fff;fill-rule:nonzero;"/><path id="Shape1" serif:id="Shape" d="M94.298,7.954c-1.435,0 -2.568,-1.17 -2.568,-2.568c0,-1.397 1.171,-2.567 2.568,-2.567c1.397,0 2.567,1.17 2.567,2.567c0,1.398 -1.133,2.568 -2.567,2.568Zm0,-4.757c-1.209,0 -2.19,0.981 -2.19,2.189c0,1.209 0.981,2.19 2.19,2.19c1.208,0 2.19,-0.981 2.19,-2.19c0,-1.208 -0.982,-2.189 -2.19,-2.189Z" style="fill:#fff;fill-rule:nonzero;"/><g id="Group"><g id="Path"><rect x="58.806" y="3.083" width="2.228" height="14.121" style="fill:#fff;fill-rule:nonzero;"/><path d="M72.285,17.204l-6.381,-10.949l0,10.949l-2.19,0l0,-14.121l2.832,0l6.419,11.101l0,-11.101l2.19,0l0,14.121l-2.87,0Z" style="fill:#fff;fill-rule:nonzero;"/><path d="M87.728,15.543c-0.529,0.831 -1.737,1.888 -4.078,1.888c-5.173,0 -6.268,-4.606 -6.268,-7.212c0,-3.322 1.624,-7.362 6.532,-7.362c4.607,0 5.4,3.662 5.475,4.644l-2.378,0c-0.303,-1.85 -1.549,-2.681 -3.248,-2.681c-2.907,0 -4.04,2.756 -4.04,5.324c0,2.681 1.058,5.324 4.04,5.324c2.794,0 3.852,-1.737 3.852,-3.701l-3.852,0l0,-1.887l5.966,0l0,7.324l-2.001,0l0,-1.661Z" style="fill:#fff;fill-rule:nonzero;"/></g><g><path id="Path1" serif:id="Path" d="M3.228,5.047l0,4.493l6.532,0l0,2.001l-6.532,0l0,5.663l-2.228,0l0,-14.121l9.137,0l0,1.964l-6.909,0Z" style="fill:#fff;fill-rule:nonzero;"/><path id="Path2" serif:id="Path" d="M12.289,17.204l0,-14.121l2.228,0l0,12.158l6.759,0l0,1.963l-8.987,0Z" style="fill:#fff;fill-rule:nonzero;"/><path id="Shape2" serif:id="Shape" d="M27.505,17.431c-3.624,0 -6.229,-2.643 -6.229,-7.249c0,-4.607 2.605,-7.325 6.229,-7.325c3.587,0 6.23,2.718 6.23,7.287c0,4.644 -2.643,7.287 -6.23,7.287Zm0,-12.611c-2.454,0 -3.889,1.85 -3.889,5.324c0,3.36 1.435,5.286 3.889,5.286c2.455,0 3.889,-1.926 3.889,-5.286c0,-3.436 -1.434,-5.324 -3.889,-5.324Z" style="fill:#fff;fill-rule:nonzero;"/></g><path id="Path3" serif:id="Path" d="M52.84,6.67l0,6.645c0,1.02 -0.83,1.851 -1.85,1.851c-1.019,0 -1.85,-0.831 -1.85,-1.851l0,-6.683c-0.075,-1.812 -1.548,-3.284 -3.398,-3.284c-1.85,0 -3.36,1.472 -3.398,3.322l0,6.721c0,1.019 -0.831,1.85 -1.85,1.85c-1.02,0 -1.85,-0.831 -1.85,-1.85l0,-6.23c0,-2.265 -1.85,-4.078 -4.078,-4.078l0,2.228c1.019,0 1.85,0.831 1.85,1.85l0,6.154c0,2.266 1.85,4.078 4.078,4.078c2.228,0 4.078,-1.85 4.078,-4.078l0,-6.569c0,-0.642 0.528,-1.171 1.17,-1.171c0.642,0 1.133,0.491 1.171,1.095l0,6.645c0,2.266 1.85,4.078 4.077,4.078c2.228,0 4.078,-1.85 4.078,-4.078l0,-6.154c0,-1.019 0.831,-1.85 1.85,-1.85l0,-2.228c-2.076,0 -3.813,1.548 -4.078,3.587Z" style="fill:#fff;fill-rule:nonzero;"/></g></g><g><path d="M125.671,9.911c0,-1.041 -1.304,-2.028 -3.303,-2.64c0.461,-2.038 0.256,-3.66 -0.648,-4.179c-0.208,-0.122 -0.451,-0.179 -0.717,-0.179l0,0.714c0.147,0 0.266,0.029 0.365,0.084c0.436,0.25 0.625,1.201 0.477,2.425c-0.035,0.302 -0.093,0.619 -0.163,0.942c-0.628,-0.153 -1.314,-0.272 -2.035,-0.349c-0.432,-0.593 -0.881,-1.131 -1.333,-1.602c1.045,-0.971 2.025,-1.503 2.692,-1.503l0,-0.714c-0.881,0 -2.035,0.628 -3.201,1.717c-1.167,-1.083 -2.32,-1.705 -3.202,-1.705l0,0.715c0.664,0 1.647,0.529 2.692,1.493c-0.449,0.471 -0.897,1.006 -1.323,1.599c-0.725,0.077 -1.41,0.196 -2.038,0.353c-0.074,-0.321 -0.128,-0.632 -0.167,-0.93c-0.151,-1.224 0.035,-2.175 0.468,-2.429c0.096,-0.057 0.221,-0.083 0.368,-0.083l0,-0.714c-0.269,0 -0.512,0.057 -0.724,0.179c-0.9,0.519 -1.102,2.137 -0.637,4.169c-1.994,0.615 -3.291,1.599 -3.291,2.637c0,1.042 1.304,2.028 3.303,2.641c-0.461,2.038 -0.256,3.659 0.648,4.178c0.208,0.122 0.451,0.18 0.721,0.18c0.881,0 2.034,-0.629 3.201,-1.718c1.166,1.083 2.32,1.705 3.201,1.705c0.269,0 0.513,-0.058 0.724,-0.18c0.901,-0.519 1.103,-2.137 0.638,-4.169c1.987,-0.612 3.284,-1.599 3.284,-2.637Zm-4.172,-2.137c-0.118,0.413 -0.266,0.839 -0.432,1.266c-0.132,-0.257 -0.269,-0.513 -0.42,-0.77c-0.148,-0.256 -0.305,-0.506 -0.462,-0.749c0.455,0.067 0.894,0.15 1.314,0.253Zm-1.467,3.412c-0.25,0.433 -0.507,0.843 -0.773,1.225c-0.477,0.041 -0.961,0.064 -1.448,0.064c-0.484,0 -0.968,-0.023 -1.442,-0.061c-0.266,-0.382 -0.525,-0.789 -0.775,-1.218c-0.244,-0.42 -0.465,-0.846 -0.667,-1.275c0.199,-0.43 0.423,-0.859 0.663,-1.279c0.25,-0.432 0.507,-0.843 0.773,-1.224c0.477,-0.042 0.961,-0.064 1.448,-0.064c0.484,0 0.968,0.022 1.442,0.061c0.266,0.381 0.526,0.788 0.775,1.218c0.244,0.419 0.465,0.846 0.667,1.275c-0.202,0.429 -0.423,0.859 -0.663,1.278Zm1.035,-0.416c0.173,0.429 0.32,0.859 0.442,1.275c-0.42,0.103 -0.862,0.189 -1.32,0.257c0.157,-0.247 0.314,-0.5 0.461,-0.76c0.148,-0.256 0.285,-0.516 0.417,-0.772Zm-3.25,3.419c-0.298,-0.308 -0.596,-0.651 -0.89,-1.025c0.288,0.012 0.583,0.022 0.881,0.022c0.301,0 0.599,-0.006 0.891,-0.022c-0.289,0.374 -0.587,0.717 -0.882,1.025Zm-2.384,-1.887c-0.455,-0.068 -0.894,-0.151 -1.313,-0.254c0.118,-0.413 0.266,-0.839 0.432,-1.265c0.132,0.256 0.269,0.512 0.42,0.769c0.151,0.256 0.304,0.506 0.461,0.75Zm2.368,-6.669c0.298,0.308 0.596,0.651 0.891,1.026c-0.288,-0.013 -0.583,-0.023 -0.881,-0.023c-0.301,0 -0.599,0.007 -0.891,0.023c0.289,-0.375 0.587,-0.718 0.881,-1.026Zm-2.371,1.888c-0.157,0.246 -0.314,0.5 -0.461,0.759c-0.148,0.256 -0.285,0.513 -0.417,0.769c-0.173,-0.429 -0.32,-0.859 -0.442,-1.275c0.42,-0.1 0.862,-0.186 1.32,-0.253Zm-2.9,4.012c-1.134,-0.484 -1.868,-1.119 -1.868,-1.622c0,-0.503 0.734,-1.141 1.868,-1.621c0.276,-0.119 0.577,-0.225 0.888,-0.324c0.182,0.628 0.423,1.282 0.721,1.952c-0.295,0.666 -0.532,1.317 -0.712,1.941c-0.317,-0.099 -0.618,-0.208 -0.897,-0.326Zm1.724,4.579c-0.436,-0.25 -0.625,-1.202 -0.477,-2.426c0.035,-0.301 0.093,-0.619 0.163,-0.942c0.628,0.154 1.314,0.272 2.035,0.349c0.432,0.593 0.881,1.131 1.333,1.602c-1.045,0.971 -2.025,1.503 -2.692,1.503c-0.144,-0.003 -0.266,-0.032 -0.362,-0.086Zm7.601,-2.442c0.151,1.224 -0.035,2.176 -0.468,2.429c-0.096,0.057 -0.221,0.083 -0.368,0.083c-0.664,0 -1.647,-0.529 -2.692,-1.493c0.449,-0.471 0.897,-1.006 1.323,-1.599c0.725,-0.077 1.41,-0.196 2.038,-0.353c0.074,0.324 0.132,0.635 0.167,0.933Zm1.234,-2.137c-0.276,0.118 -0.577,0.224 -0.888,0.323c-0.183,-0.628 -0.423,-1.282 -0.721,-1.951c0.295,-0.667 0.532,-1.317 0.711,-1.942c0.318,0.099 0.619,0.208 0.901,0.327c1.134,0.484 1.868,1.118 1.868,1.621c-0.003,0.503 -0.737,1.141 -1.871,1.622Z" style="fill:#61dafb;fill-rule:nonzero;"/><circle cx="117.808" cy="9.911" r="1.464" style="fill:#61dafb;"/></g></g></svg>