<?xml version="1.0" encoding="UTF-8" standalone="no"?><!DOCTYPE svg PUBLIC "-//W3C//DTD SVG 1.1//EN" "http://www.w3.org/Graphics/SVG/1.1/DTD/svg11.dtd"><svg width="100%" height="100%" viewBox="0 0 127 20" version="1.1" xmlns="http://www.w3.org/2000/svg" xmlns:xlink="http://www.w3.org/1999/xlink" xml:space="preserve" xmlns:serif="http://www.serif.com/" style="fill-rule:evenodd;clip-rule:evenodd;stroke-linejoin:round;stroke-miterlimit:2;"><g id="logotipo-with-r-33-copy"><g><path id="Shape" d="M94.524,4.103c0.491,0 0.793,0.302 0.793,0.642c0,0.302 -0.151,0.49 -0.415,0.604c0.226,0.037 0.34,0.226 0.377,0.453c0,0.491 0.038,0.642 0.076,0.717l-0.415,0c-0.038,-0.151 -0.038,-0.415 -0.038,-0.642c0,-0.264 -0.114,-0.377 -0.378,-0.377l-0.604,0l0,1.019l-0.377,0l0,-2.416l0.981,0Zm-0.113,1.095c0.34,0 0.491,-0.151 0.491,-0.416c0,-0.264 -0.189,-0.377 -0.453,-0.377l-0.604,0l0,0.793l0.566,0Z" style="fill:#fff;fill-rule:nonzero;"/><path id="Shape1" serif:id="Shape" d="M94.298,7.954c-1.435,0 -2.568,-1.17 -2.568,-2.568c0,-1.397 1.171,-2.567 2.568,-2.567c1.397,0 2.567,1.17 2.567,2.567c0,1.398 -1.133,2.568 -2.567,2.568Zm0,-4.757c-1.209,0 -2.19,0.981 -2.19,2.189c0,1.209 0.981,2.19 2.19,2.19c1.208,0 2.19,-0.981 2.19,-2.19c0,-1.208 -0.982,-2.189 -2.19,-2.189Z" style="fill:#fff;fill-rule:nonzero;"/><g id="Group"><g id="Path"><path d="M61.034,17.204l-2.228,0l0,-14.121l2.228,0l0,14.121Z" style="fill:#fff;fill-rule:nonzero;"/><path d="M72.285,17.204l-6.381,-10.949l0,10.949l-2.19,0l0,-14.121l2.832,0l6.419,11.101l0,-11.101l2.19,0l0,14.121l-2.87,0Z" style="fill:#fff;fill-rule:nonzero;"/><path d="M87.728,15.543c-0.529,0.831 -1.737,1.888 -4.078,1.888c-5.173,0 -6.268,-4.606 -6.268,-7.212c0,-3.322 1.624,-7.362 6.532,-7.362c4.607,0 5.4,3.662 5.475,4.644l-2.378,0c-0.303,-1.85 -1.549,-2.681 -3.248,-2.681c-2.907,0 -4.04,2.756 -4.04,5.324c0,2.681 1.058,5.324 4.04,5.324c2.794,0 3.852,-1.737 3.852,-3.701l-3.852,0l0,-1.887l5.966,0l0,7.324l-2.001,0l0,-1.661Z" style="fill:#fff;fill-rule:nonzero;"/></g><g><path id="Path1" serif:id="Path" d="M3.228,5.047l0,4.493l6.532,0l0,2.001l-6.532,0l0,5.663l-2.228,0l0,-14.121l9.137,0l0,1.964l-6.909,0Z" style="fill:#fff;fill-rule:nonzero;"/><path id="Path2" serif:id="Path" d="M12.289,17.204l0,-14.121l2.228,0l0,12.158l6.759,0l0,1.963l-8.987,0Z" style="fill:#fff;fill-rule:nonzero;"/><path id="Shape2" serif:id="Shape" d="M27.505,17.431c-3.624,0 -6.229,-2.643 -6.229,-7.249c0,-4.607 2.605,-7.325 6.229,-7.325c3.587,0 6.23,2.718 6.23,7.287c0,4.644 -2.643,7.287 -6.23,7.287Zm0,-12.611c-2.454,0 -3.889,1.85 -3.889,5.324c0,3.36 1.435,5.286 3.889,5.286c2.455,0 3.889,-1.926 3.889,-5.286c0,-3.436 -1.434,-5.324 -3.889,-5.324Z" style="fill:#fff;fill-rule:nonzero;"/></g><path id="Path3" serif:id="Path" d="M52.84,6.67l0,6.645c0,1.02 -0.83,1.851 -1.85,1.851c-1.019,0 -1.85,-0.831 -1.85,-1.851l0,-6.683c-0.075,-1.812 -1.548,-3.284 -3.398,-3.284c-1.85,0 -3.36,1.472 -3.398,3.322l0,6.721c0,1.019 -0.831,1.85 -1.85,1.85c-1.02,0 -1.85,-0.831 -1.85,-1.85l0,-6.23c0,-2.265 -1.85,-4.078 -4.078,-4.078l0,2.228c1.019,0 1.85,0.831 1.85,1.85l0,6.154c0,2.266 1.85,4.078 4.078,4.078c2.228,0 4.078,-1.85 4.078,-4.078l0,-6.569c0,-0.642 0.528,-1.171 1.17,-1.171c0.642,0 1.133,0.491 1.171,1.095l0,6.645c0,2.266 1.85,4.078 4.077,4.078c2.228,0 4.078,-1.85 4.078,-4.078l0,-6.154c0,-1.019 0.831,-1.85 1.85,-1.85l0,-2.228c-2.076,0 -3.813,1.548 -4.078,3.587Z" style="fill:#fff;fill-rule:nonzero;"/></g></g><g><path d="M119.678,2.91l-1.867,3.233l-1.867,-3.233l-6.216,0l8.083,14l8.083,-14l-6.216,0Z" style="fill:#41b883;fill-rule:nonzero;"/><path d="M119.678,2.91l-1.867,3.233l-1.867,-3.233l-2.983,0l4.85,8.399l4.85,-8.399l-2.983,0Z" style="fill:#34495e;fill-rule:nonzero;"/></g></g></svg>